<svg width="64" height="65" viewBox="0 0 64 65" fill="none" xmlns="http://www.w3.org/2000/svg">
<rect y="0.0800781" width="64" height="64" rx="32" fill="#141515"/>
<path opacity="0.983" fill-rule="evenodd" clip-rule="evenodd" d="M34.7188 23.4866C35.671 23.3875 36.5668 23.5646 37.4063 24.0179C38.9308 25.1048 40.4724 26.1673 42.0313 27.2054C43.5468 26.994 45.0573 26.7336 46.5625 26.4241C46.8827 26.4528 47.0911 26.6195 47.1875 26.9241C47.249 29.4695 47.2281 32.0112 47.125 34.5491C46.9466 34.7894 46.707 34.904 46.4063 34.8929C44.0955 35.2 41.783 35.4708 39.4688 35.7054C37.8684 34.372 36.7746 32.6949 36.1875 30.6741C35.9279 29.772 35.7404 28.8553 35.625 27.9241C35.4111 27.4994 35.0882 27.3848 34.6563 27.5804C33.4915 28.6409 32.3457 29.7242 31.2188 30.8304C29.6065 32.1793 28.0545 32.1063 26.5625 30.6116C26.5208 30.5075 26.5208 30.4033 26.5625 30.2991C28.679 28.2451 30.8145 26.2138 32.9688 24.2054C33.5109 23.8481 34.0942 23.6085 34.7188 23.4866Z" fill="white"/>
<path opacity="0.984" fill-rule="evenodd" clip-rule="evenodd" d="M29.9063 23.9238C30.3244 23.9478 30.7411 23.9894 31.1563 24.0488C29.3028 25.8501 27.4383 27.6418 25.5625 29.4238C25.1294 30.0753 25.1086 30.742 25.5 31.4238C27.3088 33.3698 29.34 33.651 31.5938 32.2676C32.5446 31.3396 33.5134 30.4333 34.5 29.5488C34.9333 31.6437 35.7874 33.5396 37.0625 35.2363C37.5233 35.77 38.0128 36.27 38.5313 36.7363C38.2729 37.3591 37.8146 37.7446 37.1563 37.8926C36.8021 37.9343 36.4479 37.9343 36.0938 37.8926C35.7694 37.7703 35.436 37.7286 35.0938 37.7676C34.9821 37.8166 34.8884 37.8895 34.8125 37.9863C33.8519 39.7996 32.4248 40.31 30.5313 39.5176C30.2843 39.4606 30.0551 39.5023 29.8438 39.6426C29.3321 40.5013 28.5821 40.8138 27.5938 40.5801C26.8224 40.4753 26.1349 40.1837 25.5313 39.7051C24.3646 38.4968 23.1979 37.2884 22.0313 36.0801C21.8777 35.9825 21.711 35.92 21.5313 35.8926C20.1161 35.6137 18.6994 35.3429 17.2813 35.0801C17.0065 35.0345 16.8294 34.8782 16.75 34.6113C16.7083 32.0488 16.7083 29.4863 16.75 26.9238C16.8404 26.5758 17.0696 26.4091 17.4375 26.4238C19.0328 26.6741 20.6265 26.9345 22.2188 27.2051C22.3646 27.2468 22.5104 27.2468 22.6563 27.2051C23.7837 26.2453 25.0129 25.4328 26.3438 24.7676C27.4878 24.2661 28.6753 23.9849 29.9063 23.9238Z" fill="white"/>
</svg>
