<svg width="64" height="65" viewBox="0 0 64 65" fill="none" xmlns="http://www.w3.org/2000/svg">
<rect y="0.0800781" width="64" height="64" rx="32" fill="#141515"/>
<path opacity="0.991" fill-rule="evenodd" clip-rule="evenodd" d="M40.0312 18.5491C41.8174 18.527 43.5883 18.6728 45.3438 18.9866C42.9982 23.641 41.8836 28.5785 42 33.7991C41.8918 36.7013 40.8709 39.2221 38.9375 41.3616C36.2628 44.4066 32.8982 45.7086 28.8438 45.2678C27.3392 45.0792 25.9226 44.6209 24.5938 43.8928C24.5402 43.8497 24.4986 43.7977 24.4688 43.7366C25.7299 40.756 27.1569 37.8602 28.75 35.0491C29.9111 33.1904 31.1089 31.3571 32.3438 29.5491C32.0366 29.6387 31.7241 29.7741 31.4062 29.9553C26.8162 32.7442 23.6704 36.6922 21.9688 41.7991C19.7824 39.5702 18.6782 36.8827 18.6562 33.7366C18.6799 30.7582 19.6903 28.1749 21.6875 25.9866C25.7072 22.0342 30.5301 19.6696 36.1562 18.8928C37.4528 18.7223 38.7445 18.6077 40.0312 18.5491Z" fill="white"/>
</svg>
