<svg width="64" height="65" viewBox="0 0 64 65" fill="none" xmlns="http://www.w3.org/2000/svg">
<rect y="0.0800781" width="64" height="64" rx="32" fill="#141515"/>
<path opacity="0.932" fill-rule="evenodd" clip-rule="evenodd" d="M31.7188 17.1116C32.2868 17.0459 32.6723 17.275 32.875 17.7991C32.933 18.4703 32.9122 19.137 32.8125 19.7991C32.4487 20.3152 31.98 20.4297 31.4063 20.1428C31.252 19.9902 31.1374 19.8132 31.0625 19.6116C31.0208 19.0074 31.0208 18.4032 31.0625 17.7991C31.1678 17.4543 31.3865 17.2252 31.7188 17.1116Z" fill="white"/>
<path opacity="0.936" fill-rule="evenodd" clip-rule="evenodd" d="M21.9063 21.1743C22.1855 21.1513 22.4563 21.1826 22.7188 21.268C23.1875 21.6535 23.6146 22.0805 24 22.5493C24.2409 23.3395 23.9596 23.7979 23.1563 23.9243C22.9503 23.9371 22.7628 23.885 22.5938 23.768C22.2292 23.4035 21.8646 23.0388 21.5 22.6743C21.168 22.044 21.3034 21.544 21.9063 21.1743Z" fill="white"/>
<path opacity="0.936" fill-rule="evenodd" clip-rule="evenodd" d="M41.3438 21.1742C42.2979 21.076 42.7041 21.4927 42.5625 22.4242C42.2025 22.9095 41.7962 23.3574 41.3438 23.768C40.6929 24.0945 40.2033 23.9382 39.875 23.2992C39.8271 23.0433 39.8479 22.7933 39.9375 22.5492C40.3583 22.0346 40.827 21.5763 41.3438 21.1742Z" fill="white"/>
<path opacity="0.992" fill-rule="evenodd" clip-rule="evenodd" d="M31.5312 23.6113C35.7367 23.6625 38.5388 25.6625 39.9375 29.6113C40.7353 32.8885 39.9333 35.7115 37.5312 38.0801C36.8211 38.4775 36.3108 39.0504 36 39.7988C35.9277 40.0451 35.8756 40.2951 35.8437 40.5488C33.2604 40.5488 30.677 40.5488 28.0937 40.5488C28.0119 39.8332 27.7202 39.2186 27.2187 38.7051C24.3748 36.5296 23.2602 33.665 23.875 30.1113C24.617 27.1817 26.3982 25.1713 29.2187 24.0801C29.98 23.8321 30.7508 23.6758 31.5312 23.6113Z" fill="white"/>
<path opacity="0.938" fill-rule="evenodd" clip-rule="evenodd" d="M18.0937 30.8613C18.6149 30.8509 19.1358 30.8613 19.6562 30.8926C20.3454 31.0937 20.585 31.5416 20.3749 32.2363C20.2505 32.4857 20.0526 32.6419 19.7812 32.7051C19.177 32.7467 18.5729 32.7467 17.9687 32.7051C17.4193 32.513 17.2006 32.1276 17.3124 31.5488C17.4306 31.1521 17.691 30.9229 18.0937 30.8613Z" fill="white"/>
<path opacity="0.938" fill-rule="evenodd" clip-rule="evenodd" d="M44.2812 30.8613C44.8024 30.8509 45.3233 30.8613 45.8437 30.8926C46.6157 31.1231 46.8344 31.6127 46.4999 32.3613C46.3687 32.5467 46.1916 32.6613 45.9687 32.7051C45.3645 32.7467 44.7604 32.7467 44.1562 32.7051C43.6521 32.5131 43.4333 32.1486 43.4999 31.6113C43.6123 31.1976 43.8727 30.9476 44.2812 30.8613Z" fill="white"/>
<path opacity="0.981" fill-rule="evenodd" clip-rule="evenodd" d="M28.0937 42.0488C30.677 42.0488 33.2604 42.0488 35.8437 42.0488C35.8412 43.7738 35.0703 45.0134 33.5312 45.7676C31.7924 46.395 30.282 46.0512 29 44.7363C28.3558 43.9601 28.0537 43.0643 28.0937 42.0488Z" fill="white"/>
</svg>
