<svg width="64" height="65" viewBox="0 0 64 65" fill="none" xmlns="http://www.w3.org/2000/svg">
<rect y="0.0800781" width="64" height="64" rx="32" fill="#141515"/>
<g clip-path="url(#clip0_256_2685)">
<path opacity="0.992" fill-rule="evenodd" clip-rule="evenodd" d="M31.5938 16.0488C31.8438 16.0488 32.0938 16.0488 32.3438 16.0488C32.9268 16.4328 33.4685 16.8807 33.9688 17.3926C36.2492 19.1569 38.8326 20.1986 41.7188 20.5176C42.6549 20.5996 43.5924 20.6621 44.5313 20.7051C45.0072 20.8268 45.2884 21.1289 45.375 21.6113C45.5103 24.7587 45.4895 27.9045 45.3125 31.0488C44.7418 39.6354 40.398 45.3021 32.2813 48.0488C32.073 48.0488 31.8646 48.0488 31.6563 48.0488C23.5403 45.3045 19.1966 39.6378 18.625 31.0488C18.4479 27.9255 18.4271 24.8005 18.5625 21.6738C18.6205 21.1575 18.9017 20.8346 19.4063 20.7051C22.4058 20.7676 25.2391 20.1218 27.9063 18.7676C29.1435 18.0651 30.2685 17.211 31.2813 16.2051C31.3947 16.1578 31.4988 16.1057 31.5938 16.0488ZM36.5313 27.1113C37.0605 27.6511 37.5813 28.2031 38.0938 28.7676C35.7208 30.953 33.3666 33.1613 31.0313 35.3926C30.5988 35.7122 30.1405 35.7538 29.6563 35.5176C28.3917 34.1544 27.1417 32.7794 25.9063 31.3926C26.477 30.9262 27.029 30.4366 27.5625 29.9238C28.4907 30.9166 29.397 31.927 30.2813 32.9551C30.3438 32.9968 30.4063 32.9968 30.4688 32.9551C32.502 31.0155 34.5229 29.0676 36.5313 27.1113Z" fill="white"/>
</g>
<defs>
<clipPath id="clip0_256_2685">
<rect width="32" height="32" fill="white" transform="translate(16 16.0801)"/>
</clipPath>
</defs>
</svg>
