<svg width="64" height="65" viewBox="0 0 64 65" fill="none" xmlns="http://www.w3.org/2000/svg">
<rect y="0.0800781" width="64" height="64" rx="32" fill="#141515"/>
<g clip-path="url(#clip0_256_2701)">
<path opacity="0.991" fill-rule="evenodd" clip-rule="evenodd" d="M30.7812 16.0488C31.427 16.0488 32.0729 16.0488 32.7187 16.0488C35.8623 16.5982 37.9977 18.369 39.125 21.3613C40.1099 25.3256 38.8912 28.3985 35.4687 30.5801C33.2442 31.6671 30.9734 31.7713 28.6562 30.8926C25.3309 29.2295 23.7996 26.5315 24.0625 22.7988C24.4675 20.1859 25.8113 18.2171 28.0937 16.8926C28.9475 16.4516 29.8433 16.1704 30.7812 16.0488Z" fill="white"/>
<path opacity="0.994" fill-rule="evenodd" clip-rule="evenodd" d="M40.5938 48.0488C34.823 48.0488 29.0521 48.0488 23.2813 48.0488C21.2846 47.7922 19.8575 46.7506 19 44.9238C18.8111 44.4611 18.6861 43.982 18.625 43.4863C18.4572 41.0803 18.728 38.7262 19.4375 36.4238C19.9034 34.9593 20.7055 33.7197 21.8438 32.7051C23.1258 31.7361 24.5633 31.3611 26.1563 31.5801C26.844 31.9654 27.5106 32.3821 28.1563 32.8301C30.5398 34.2132 32.9565 34.2757 35.4063 33.0176C36.1666 32.5227 36.9375 32.0436 37.7188 31.5801C40.2815 31.325 42.2295 32.2937 43.5625 34.4863C44.5626 36.382 45.1251 38.4028 45.25 40.5488C45.3399 41.5499 45.3399 42.5499 45.25 43.5488C44.7488 46.1377 43.1967 47.6377 40.5938 48.0488Z" fill="white"/>
</g>
<defs>
<clipPath id="clip0_256_2701">
<rect width="32" height="32" fill="white" transform="translate(16 16.0801)"/>
</clipPath>
</defs>
</svg>
