<svg width="64" height="65" viewBox="0 0 64 65" fill="none" xmlns="http://www.w3.org/2000/svg">
<rect y="0.0800781" width="64" height="64" rx="32" fill="#141515"/>
<path opacity="0.992" fill-rule="evenodd" clip-rule="evenodd" d="M31.8438 22.4864C32.2 22.4844 32.5021 22.6094 32.75 22.8614C34.3775 25.7519 36.0129 28.6372 37.6562 31.5176C39.6359 30.6009 41.6151 29.6634 43.5938 28.7051C44.583 28.5067 45.0518 28.9129 45 29.9239C44.1667 33.5905 43.3333 37.2572 42.5 40.9239C42.3854 41.2051 42.1875 41.403 41.9062 41.5176C35.2604 41.5593 28.6146 41.5593 21.9688 41.5176C21.7561 41.4301 21.579 41.2947 21.4375 41.1114C20.5749 37.3901 19.7416 33.661 18.9375 29.9239C18.9393 28.8814 19.4497 28.496 20.4688 28.7676C22.3721 29.7037 24.2784 30.6308 26.1875 31.5489C27.8567 28.6167 29.5338 25.6896 31.2188 22.7676C31.4102 22.6195 31.6186 22.5257 31.8438 22.4864Z" fill="white"/>
</svg>
