<svg width="131" height="134" viewBox="0 0 131 134" fill="none" xmlns="http://www.w3.org/2000/svg">
<path d="M108.93 54.5039V87.9805C108.93 94.9355 103.273 100.592 96.2256 100.592H37.4329C30.478 100.592 24.8212 95.0282 24.7285 88.0733C24.7285 87.9805 24.7285 87.9805 24.7285 87.8878V54.5039C24.7285 54.4112 24.7285 54.4112 24.7285 54.3185C24.7285 54.133 24.7285 53.9475 24.8212 53.7621C24.914 53.4839 25.0067 53.2984 25.0994 53.0202L40.864 22.882C41.4204 21.6765 42.626 21.0273 43.9242 21.0273H89.6416C90.9398 21.0273 92.0526 21.6765 92.7018 22.882L108.466 53.0202C108.559 53.2057 108.652 53.4839 108.745 53.7621C108.93 53.9475 108.93 54.2257 108.93 54.5039Z" fill="#D5DDEA"/>
<g filter="url(#filter0_d_1793_155978)">
<path d="M108.93 54.5075V91.4152C108.93 96.5155 104.85 100.596 99.6567 100.596H34.0018C28.9015 100.596 24.7285 96.5155 24.7285 91.4152V54.322C24.7285 54.1366 24.7285 53.9511 24.8212 53.7656H45.9644C49.1173 53.7656 51.7138 56.2694 51.7138 59.5151C51.7138 61.0915 52.3629 62.5753 53.383 63.5953C54.4958 64.7081 55.7941 65.2645 57.4632 65.2645H76.288C79.4409 65.2645 82.0375 62.7607 82.0375 59.5151C82.0375 57.9386 82.6866 56.4549 83.7067 55.4348C84.8195 54.322 86.1177 53.7656 87.6942 53.7656H108.745C108.93 53.9511 108.93 54.2293 108.93 54.5075Z" fill="url(#paint0_linear_1793_155978)"/>
</g>
<path d="M120.411 35.4908C122.511 35.4908 124.213 33.7886 124.213 31.6888C124.213 29.589 122.511 27.8867 120.411 27.8867C118.312 27.8867 116.609 29.589 116.609 31.6888C116.609 33.7886 118.312 35.4908 120.411 35.4908Z" fill="#EAEEF9"/>
<path d="M116.608 23.1579C118.042 23.1579 119.205 21.9954 119.205 20.5614C119.205 19.1273 118.042 17.9648 116.608 17.9648C115.174 17.9648 114.012 19.1273 114.012 20.5614C114.012 21.9954 115.174 23.1579 116.608 23.1579Z" fill="#EAEEF9"/>
<path d="M11.4481 31.6891C12.8821 31.6891 14.0446 30.5266 14.0446 29.0926C14.0446 27.6586 12.8821 26.4961 11.4481 26.4961C10.0141 26.4961 8.85156 27.6586 8.85156 29.0926C8.85156 30.5266 10.0141 31.6891 11.4481 31.6891Z" fill="#EAEEF9"/>
<path d="M5.60727 88.8122C8.27045 88.8122 10.4294 86.6533 10.4294 83.9901C10.4294 81.3269 8.27045 79.168 5.60727 79.168C2.94409 79.168 0.785156 81.3269 0.785156 83.9901C0.785156 86.6533 2.94409 88.8122 5.60727 88.8122Z" fill="#EAEEF9"/>
<path d="M90.0296 9.86328C91.2399 23.0751 91.845 26.1007 89.1049 38.0658C88.2139 40.7259 87.3228 43.6393 85.4133 45.666C82.7401 48.8328 77.9027 50.2262 73.9565 49.2128C69.883 48.1995 66.5732 44.6527 65.8094 40.3459C65.173 37.6858 66.064 34.519 68.3554 32.8723C70.7741 31.3523 74.2111 31.7323 76.2479 33.6323C78.5392 35.5324 79.4303 38.4458 79.303 41.2326C79.1757 44.0193 78.1573 46.8061 76.7571 49.2128C73.5916 55.1307 72.2885 55.109 65.8095 64.8283" stroke="#ABB5CC" stroke-width="2" stroke-miterlimit="10" stroke-dasharray="4 4"/>
<path d="M97.1255 4.94605C96.6416 6.7115 94.7061 7.35348 92.7707 6.23001C90.6739 5.26704 89.2223 4.46457 89.5449 2.85961C90.0287 1.25466 91.9642 1.09416 94.2223 0.933668C96.9642 0.612678 97.4481 3.1806 97.1255 4.94605Z" fill="#DAE2EB"/>
<path d="M81.4811 6.55014C82.2875 7.9946 84.5456 8.95757 86.1585 7.51311C87.9327 5.90816 89.3843 4.78469 88.5778 3.17974C87.7714 1.73528 86.4811 2.21677 83.7391 2.53776C81.4811 3.01924 80.5134 4.94519 81.4811 6.55014Z" fill="#DAE2EB"/>
<path d="M88.578 0.610516C89.7071 0.450021 90.8361 1.092 91.1587 2.05497C91.32 2.37597 91.4813 2.85745 91.4813 3.17844C91.8038 5.42538 90.9974 7.35132 89.7071 7.51182C88.2555 7.83281 86.8039 6.22785 86.6426 4.14141C86.6426 3.49943 86.6426 3.17844 86.6426 2.69696C86.8039 1.57349 87.449 0.771012 88.578 0.610516C88.7393 0.610516 88.578 0.610516 88.578 0.610516Z" fill="#989FB0"/>
<path d="M56.2467 78.5715C57.4217 78.5715 58.3743 77.619 58.3743 76.444C58.3743 75.2689 57.4217 74.3164 56.2467 74.3164C55.0717 74.3164 54.1191 75.2689 54.1191 76.444C54.1191 77.619 55.0717 78.5715 56.2467 78.5715Z" fill="#989FB0"/>
<path d="M77.4069 78.5715C78.5819 78.5715 79.5344 77.619 79.5344 76.444C79.5344 75.2689 78.5819 74.3164 77.4069 74.3164C76.2318 74.3164 75.2793 75.2689 75.2793 76.444C75.2793 77.619 76.2318 78.5715 77.4069 78.5715Z" fill="#989FB0"/>
<path d="M70.2768 92.5412H63.6065C62.5715 92.5412 61.709 91.6787 61.709 90.6437C61.709 89.6086 62.5715 88.7461 63.6065 88.7461H70.2193C71.2543 88.7461 72.1168 89.6086 72.1168 90.6437C72.1743 91.6787 71.3118 92.5412 70.2768 92.5412Z" fill="#989FB0"/>
<defs>
<filter id="filter0_d_1793_155978" x="2.72852" y="42.7656" width="128.201" height="90.832" filterUnits="userSpaceOnUse" color-interpolation-filters="sRGB">
<feFlood flood-opacity="0" result="BackgroundImageFix"/>
<feColorMatrix in="SourceAlpha" type="matrix" values="0 0 0 0 0 0 0 0 0 0 0 0 0 0 0 0 0 0 127 0" result="hardAlpha"/>
<feOffset dy="11"/>
<feGaussianBlur stdDeviation="11"/>
<feColorMatrix type="matrix" values="0 0 0 0 0.397708 0 0 0 0 0.47749 0 0 0 0 0.575 0 0 0 0.27 0"/>
<feBlend mode="normal" in2="BackgroundImageFix" result="effect1_dropShadow_1793_155978"/>
<feBlend mode="normal" in="SourceGraphic" in2="effect1_dropShadow_1793_155978" result="shape"/>
</filter>
<linearGradient id="paint0_linear_1793_155978" x1="66.8018" y1="52.6824" x2="66.8018" y2="101.101" gradientUnits="userSpaceOnUse">
<stop stop-color="#FDFEFF"/>
<stop offset="0.9964" stop-color="#ECF0F5"/>
</linearGradient>
</defs>
</svg>
