<svg width="24" height="24" viewBox="0 0 24 24" fill="none" xmlns="http://www.w3.org/2000/svg">
<path d="M9 5V5C8.07099 5 7.60649 5 7.21783 5.06156C5.07837 5.40042 3.40042 7.07837 3.06156 9.21783C3 9.60649 3 10.071 3 11V13C3 15.8003 3 17.2004 3.54497 18.27C4.02433 19.2108 4.78924 19.9757 5.73005 20.455C6.79961 21 8.19974 21 11 21H13C15.8003 21 17.2004 21 18.27 20.455C19.2108 19.9757 19.9757 19.2108 20.455 18.27C21 17.2004 21 15.8003 21 13V11C21 10.071 21 9.60649 20.9384 9.21783C20.5996 7.07837 18.9216 5.40042 16.7822 5.06156C16.3935 5 15.929 5 15 5V5M9 5V6.5M9 5V3M9 5H15M15 5V3M15 5V6.5" stroke="#FAFBFB" stroke-width="1.5" stroke-linecap="round" stroke-linejoin="round"/>
<path d="M8.87655 15.5825C9.3173 14.6184 10.28 14 11.3401 14H12.6599C13.72 14 14.6827 14.6184 15.1235 15.5825V15.5825C15.5335 16.4795 14.878 17.5 13.8917 17.5H10.1083C9.12204 17.5 8.4665 16.4795 8.87655 15.5825V15.5825Z" stroke="#FAFBFB" stroke-width="1.5" stroke-linejoin="round"/>
<path d="M13.5 10.5C13.5 11.3284 12.8284 12 12 12C11.1716 12 10.5 11.3284 10.5 10.5C10.5 9.67157 11.1716 9 12 9C12.8284 9 13.5 9.67157 13.5 10.5Z" stroke="#FAFBFB" stroke-width="1.5"/>
</svg>
