<svg width="52" height="52" viewBox="0 0 52 52" fill="none" xmlns="http://www.w3.org/2000/svg">
<rect width="52" height="52" rx="26" fill="#D6D8D7"/>
<path d="M20 22.75V32.5M24 22.75V32.5M28 22.75V32.5M32 22.75V32.5M24.6109 17.5835L18.7862 21.0783C17.7969 21.6718 17.3023 21.9686 17.3052 22.255C17.3061 22.3422 17.3297 22.4277 17.3738 22.5029C17.5187 22.75 18.0956 22.75 19.2493 22.75H32.7507C33.9044 22.75 34.4813 22.75 34.6262 22.5029C34.6703 22.4277 34.6939 22.3422 34.6948 22.255C34.6977 21.9686 34.2031 21.6718 33.2138 21.0783L27.3891 17.5835C26.7892 17.2235 26.4893 17.0436 26.1618 17.008C26.0543 16.9964 25.9457 16.9964 25.8382 17.008C25.5107 17.0436 25.2108 17.2235 24.6109 17.5835ZM33.3907 32.5H18.6093C18.3479 32.5 18.2172 32.5 18.1094 32.5556C18.074 32.5738 18.041 32.5962 18.011 32.6222C17.9193 32.7017 17.8708 32.823 17.7737 33.0657L17.4937 33.7657C17.2965 34.2588 17.1979 34.5053 17.278 34.6947C17.3034 34.7548 17.3403 34.8094 17.3867 34.8553C17.5328 35 17.7983 35 18.3293 35H33.6707C34.2017 35 34.4672 35 34.6133 34.8553C34.6597 34.8094 34.6966 34.7548 34.722 34.6947C34.8021 34.5053 34.7035 34.2588 34.5063 33.7657L34.2263 33.0657C34.1292 32.823 34.0807 32.7017 33.989 32.6222C33.959 32.5962 33.926 32.5738 33.8906 32.5556C33.7828 32.5 33.6521 32.5 33.3907 32.5Z" stroke="#282B2A" stroke-width="1.5" stroke-linecap="round" stroke-linejoin="round"/>
</svg>
