<svg width="48" height="48" viewBox="0 0 48 48" fill="none" xmlns="http://www.w3.org/2000/svg">
<rect x="0.5" y="0.5" width="47" height="47" rx="23.5" stroke="#E3E5E5"/>
<path d="M24.0206 14.9102C20.7106 14.9102 18.0206 17.6002 18.0206 20.9102V23.8002C18.0206 24.4102 17.7606 25.3402 17.4506 25.8602L16.3006 27.7702C15.5906 28.9502 16.0806 30.2602 17.3806 30.7002C21.6906 32.1402 26.3406 32.1402 30.6506 30.7002C31.8606 30.3002 32.3906 28.8702 31.7306 27.7702L30.5806 25.8602C30.2806 25.3402 30.0206 24.4102 30.0206 23.8002V20.9102C30.0206 17.6102 27.3206 14.9102 24.0206 14.9102Z" stroke="#282B2A" stroke-width="1.5" stroke-miterlimit="10" stroke-linecap="round"/>
<path d="M25.87 15.2004C25.56 15.1104 25.24 15.0404 24.91 15.0004C23.95 14.8804 23.03 14.9504 22.17 15.2004C22.46 14.4604 23.18 13.9404 24.02 13.9404C24.86 13.9404 25.58 14.4604 25.87 15.2004Z" stroke="#282B2A" stroke-width="1.5" stroke-miterlimit="10" stroke-linecap="round" stroke-linejoin="round"/>
<path d="M27.0195 31.0605C27.0195 32.7105 25.6695 34.0605 24.0195 34.0605C23.1995 34.0605 22.4395 33.7205 21.8995 33.1805C21.3595 32.6405 21.0195 31.8805 21.0195 31.0605" stroke="#282B2A" stroke-width="1.5" stroke-miterlimit="10"/>
</svg>
