<svg width="31" height="31" viewBox="0 0 31 31" fill="none" xmlns="http://www.w3.org/2000/svg">
<mask id="mask0_1834_6351" style="mask-type:alpha" maskUnits="userSpaceOnUse" x="0" y="0" width="31" height="31">
<rect x="0.0244141" y="0.384766" width="30.9524" height="29.9048" fill="#D9D9D9"/>
</mask>
<g mask="url(#mask0_1834_6351)">
<path d="M11.6316 26.7924C9.48218 26.7924 7.65513 26.0401 6.1505 24.5355C4.64587 23.0308 3.89355 21.2038 3.89355 19.0543V11.3162C3.89355 9.16675 4.64587 7.3397 6.1505 5.83507C7.65513 4.33044 9.48218 3.57812 11.6316 3.57812H19.3697C21.5192 3.57812 23.3463 4.33044 24.8509 5.83507C26.3555 7.3397 27.1078 9.16675 27.1078 11.3162V19.0543C27.1078 21.2038 26.3555 23.0308 24.8509 24.5355C23.3463 26.0401 21.5192 26.7924 19.3697 26.7924H11.6316ZM14.211 20.344L21.9491 12.6059L20.1435 10.8003L14.211 16.7329L11.3737 13.8956L9.56815 15.7011L14.211 20.344ZM11.6316 24.213H19.3697C20.7884 24.213 22.0028 23.7079 23.0131 22.6977C24.0233 21.6874 24.5285 20.473 24.5285 19.0543V11.3162C24.5285 9.89757 24.0233 8.68312 23.0131 7.67286C22.0028 6.66261 20.7884 6.15749 19.3697 6.15749H11.6316C10.213 6.15749 8.99855 6.66261 7.98829 7.67286C6.97804 8.68312 6.47292 9.89757 6.47292 11.3162V19.0543C6.47292 20.473 6.97804 21.6874 7.98829 22.6977C8.99855 23.7079 10.213 24.213 11.6316 24.213Z" fill="white"/>
</g>
</svg>
