<svg width="150" height="43" viewBox="0 0 150 43" fill="none" xmlns="http://www.w3.org/2000/svg">
<g clip-path="url(#clip0_1031_56948)">
<path d="M31.5295 18.7888C31.4418 18.3107 31.3299 17.8456 31.1917 17.3894C31.1895 17.3828 31.1895 17.3806 31.1851 17.374C31.183 17.3609 31.1764 17.3455 31.172 17.3345C31.172 17.3323 31.1698 17.3258 31.1698 17.3214C31.0733 17.0647 30.8276 16.8783 30.5402 16.8673H30.4437C29.9041 16.8673 29.3689 16.9024 28.8468 16.966C28.6889 16.988 28.531 17.0121 28.3708 17.0384C27.9475 17.1086 27.5351 17.2007 27.1293 17.3126V11.8617C27.1293 11.548 26.9538 11.2475 26.6621 11.1312C26.5217 11.0742 26.3989 11.0786 26.2936 11.1027C26.2695 11.1049 26.2475 11.1115 26.2256 11.1181C26.0106 11.1707 25.8 11.2321 25.5895 11.3023C25.4491 11.3462 25.3109 11.3923 25.1727 11.4427V11.4559C25.1727 11.4559 25.1595 11.4537 25.1529 11.4493C25.0784 11.4734 25.006 11.5019 24.9358 11.5305C24.8086 11.5787 24.6835 11.6314 24.5607 11.684C24.5234 11.6577 24.4883 11.6292 24.4488 11.6028C24.4488 11.6028 24.4488 11.6007 24.4466 11.6007C23.023 10.5785 21.3779 9.84803 19.5945 9.50145C19.4191 9.46855 19.2392 9.46855 19.0659 9.50803C17.2957 9.89628 15.6659 10.6596 14.2665 11.7125C14.2533 11.7235 14.238 11.7345 14.2248 11.7454C14.1721 11.7235 14.1217 11.6994 14.0712 11.6796C13.9967 11.6489 13.9221 11.6204 13.8475 11.5919C13.8453 11.5919 13.8409 11.5919 13.8387 11.5941C13.8387 11.5919 13.8387 11.5875 13.8365 11.5853C13.6567 11.5173 13.4768 11.4515 13.2925 11.3923C13.1741 11.3528 13.0556 11.3155 12.9394 11.2826C12.867 11.2585 12.7968 11.2387 12.7244 11.2212C12.5665 11.1751 12.4042 11.1334 12.244 11.0961C12.2221 11.0896 12.2002 11.083 12.176 11.0808C12.0466 11.0523 11.8865 11.0523 11.7022 11.1663C11.4719 11.3067 11.3381 11.5678 11.3381 11.8398V17.2753C11.3381 17.2753 11.3271 17.2731 11.3206 17.2709C11.1407 17.2249 10.9608 17.181 10.7766 17.1437C10.4015 17.0625 10.0198 17.0011 9.63154 16.9572C9.34858 16.9222 9.06123 16.9024 8.77168 16.8849C8.57865 16.8761 8.38343 16.8717 8.1882 16.8717C8.12678 16.8717 8.06098 16.8717 7.99956 16.8739H7.88769C7.60472 16.9024 7.37221 17.0976 7.29105 17.3587C7.12654 17.8873 6.99931 18.4269 6.90499 18.9819C6.79531 19.6531 6.73828 20.3397 6.73828 21.0416C6.73828 21.7435 6.79751 22.4367 6.90938 23.1057C7.57621 27.1177 10.1536 30.4847 13.6764 32.233C13.6764 32.2352 13.6786 32.2396 13.683 32.2352C14.2906 32.5401 14.9289 32.7945 15.5892 32.9963C15.8568 33.0775 16.1266 33.1477 16.3986 33.2135C16.8417 33.3166 17.2957 33.3977 17.7586 33.4504C17.9143 33.4679 18.07 33.4855 18.2236 33.4965C18.274 33.4986 18.3201 33.503 18.3706 33.5052C18.4627 33.514 18.5592 33.5184 18.6557 33.5228H18.6579C18.8509 33.5315 19.0396 33.5359 19.2348 33.5359C19.4871 33.5359 19.7349 33.5294 19.9806 33.514C20.0947 33.5074 20.2109 33.4986 20.325 33.4855C20.3864 33.4833 20.45 33.4767 20.5114 33.4701H20.5136C20.6321 33.457 20.7461 33.446 20.8646 33.4306C21.2901 33.3758 21.7003 33.3012 22.1105 33.2003H22.1171C22.4483 33.1235 22.7752 33.0336 23.0954 32.9261C24.4795 32.4787 25.7606 31.7965 26.8836 30.9234C29.8339 28.6356 31.7335 25.0601 31.7335 21.0394C31.7335 20.3309 31.6743 19.6399 31.5602 18.9621C31.5537 18.9073 31.5427 18.8481 31.5317 18.791L31.5295 18.7888ZM19.3555 11.5239H19.3576C20.4917 11.7652 21.5556 12.1951 22.5207 12.772C21.7267 13.2919 20.9918 13.8973 20.3403 14.5795C19.9916 14.9458 19.6625 15.3318 19.3598 15.7376C19.0549 15.3362 18.7303 14.9589 18.3837 14.597C17.741 13.928 17.0215 13.3357 16.245 12.8225C17.1904 12.2324 18.2368 11.7849 19.3555 11.5239ZM18.3662 31.3753C18.2784 31.3687 18.1885 31.3621 18.1029 31.3512H18.1008C17.8682 31.3271 17.6379 31.2963 17.4076 31.2547C16.5061 31.0923 15.6462 30.8203 14.8434 30.4453C12.4656 29.3375 10.577 27.3655 9.58329 24.9241H9.58109C9.08755 23.7089 8.81775 22.384 8.81775 20.9955C8.81775 20.2914 8.89013 19.6005 9.01955 18.9358C9.34639 18.9599 9.66883 19.0016 9.98909 19.0565C10.4431 19.1376 10.8906 19.2451 11.3206 19.3833C11.5443 19.4513 11.7615 19.5303 11.9764 19.6136C12.4261 19.7913 12.8604 19.9953 13.2772 20.2322C14.7425 21.0526 15.9884 22.2173 16.9075 23.6168C17.5041 24.5293 17.9626 25.5383 18.2521 26.6197C18.296 26.7843 18.3355 26.9488 18.3706 27.1133V31.3775L18.3662 31.3753ZM19.6516 23.0553C19.5309 23.2593 19.4191 23.4654 19.3138 23.6738C19.226 23.5027 19.1339 23.3316 19.0374 23.1649C18.8334 22.8052 18.6097 22.4542 18.3662 22.1186C18.0744 21.7084 17.7586 21.3136 17.4164 20.9451C16.2692 19.686 14.8675 18.6616 13.2903 17.9553V13.5573C13.6852 13.7152 14.0669 13.9017 14.4354 14.1079C15.9643 14.9589 17.2519 16.1829 18.1797 17.6548C18.2521 17.7645 18.3157 17.8763 18.3815 17.986V17.9794C18.5702 18.3392 18.9365 18.5827 19.3598 18.5827C19.7415 18.5827 20.0793 18.3808 20.2811 18.0738C20.3009 18.0452 20.3184 18.0123 20.336 17.9816C20.336 17.9816 20.3382 17.9685 20.3447 17.9663C20.4062 17.8566 20.4698 17.7513 20.5378 17.646C21.5249 16.0711 22.9221 14.7791 24.5804 13.9192C24.7735 13.8205 24.9687 13.724 25.1705 13.6406V18.0321C25.1705 18.0321 25.1595 18.0365 25.1529 18.0409C23.6745 18.7296 22.3518 19.7014 21.2594 20.8881C20.9238 21.2522 20.608 21.6339 20.3184 22.0375C20.0771 22.3665 19.8534 22.7087 19.6472 23.0596L19.6516 23.0553ZM25.4425 29.3551C24.2339 30.2566 22.8278 30.8993 21.3011 31.2064C21.0467 31.2569 20.7922 31.2985 20.5312 31.3314C20.4632 31.3402 20.3908 31.349 20.3228 31.3556V26.8435C20.3382 26.7689 20.3579 26.6965 20.3776 26.6219C20.6781 25.4945 21.1629 24.446 21.7968 23.5049C22.6655 22.2173 23.8127 21.1315 25.1573 20.3397C25.7715 19.9755 26.4274 19.675 27.114 19.4425C27.1315 19.4359 27.1534 19.4294 27.1732 19.4228C27.8225 19.2078 28.4981 19.0565 29.1978 18.9731C29.2812 18.9643 29.3645 18.9556 29.4501 18.9446C29.5707 19.55 29.6387 20.1708 29.6497 20.8069C29.6519 20.8683 29.6519 20.9275 29.6519 20.9911C29.6519 24.4152 27.9958 27.4555 25.4447 29.3529L25.4425 29.3551Z" fill="white"/>
<path d="M35.5834 11.024L24.2078 2.24986C21.4373 0.113363 17.6952 0.0804603 14.8897 2.17089L3.02268 11.013C1.12967 12.4256 0 14.6762 0 17.0364V32.56C0 36.7036 3.37145 40.0728 7.51722 40.0728H30.9902C35.1337 40.0728 38.5074 36.7036 38.5074 32.56V16.9706C38.5074 14.6586 37.415 12.4366 35.5834 11.024ZM36.0287 32.56C36.0287 35.337 33.7694 37.5942 30.9902 37.5942H7.51722C4.73802 37.5942 2.47869 35.3348 2.47869 32.56V17.0364C2.47869 15.4549 3.23545 13.9457 4.50551 13.0003L16.3703 4.15603C17.3091 3.4563 18.4037 3.10753 19.4961 3.10753C20.5884 3.10753 21.74 3.47604 22.692 4.21087L34.0677 12.985C35.2939 13.9326 36.0265 15.422 36.0265 16.9706V32.5578L36.0287 32.56Z" fill="white"/>
<path fill-rule="evenodd" clip-rule="evenodd" d="M105.721 9.227C105.822 9.15242 107.711 7.74417 108.654 5.89941C109.599 7.74417 111.486 9.15242 111.587 9.227C111.589 9.227 111.589 9.23138 111.587 9.23358C111.486 9.30816 109.599 10.7164 108.654 12.5612C107.709 10.7164 105.822 9.30816 105.721 9.23358C105.719 9.23358 105.719 9.22919 105.721 9.227Z" fill="white"/>
<path d="M64.5293 24.7537C63.7966 28.4564 61.2675 32.1942 57.7491 32.1942H52.9475V19.0725H54.597C57.8961 19.0725 59.2889 20.1363 59.6553 22.3715H60.0567V15.1877H59.6553C59.2889 17.4251 57.8961 18.4144 54.597 18.4144H52.9475V8.07852H56.2465C59.7649 8.07852 62.3292 10.9367 63.0618 14.6394H63.5751L62.5134 7.30859H46.8626V7.82188C48.8434 7.82188 49.576 9.32445 49.576 10.8643V29.4084C49.576 30.9482 48.8434 32.4508 46.8626 32.4508V32.9641H64.2726L65.0426 24.7537H64.5293Z" fill="white"/>
<path d="M71.2719 29.4081V5.11035H70.7586C69.2209 5.91538 67.2775 6.46595 65.4832 6.57563V7.08891C67.4968 7.08891 68.1571 8.62877 68.1571 10.1313V29.4081C68.1571 30.9106 67.4968 32.4505 65.4832 32.4505V32.9638H73.948V32.4505C71.9321 32.4505 71.2719 30.9106 71.2719 29.4081Z" fill="white"/>
<path d="M85.2736 14.6016V15.1148C87.1798 15.1148 87.8027 16.3608 87.2543 18.12L83.589 29.4452L79.6296 18.12C78.9694 16.3608 79.5573 15.1148 81.4634 15.1148V14.6016H73.6918V15.1148C75.2316 15.1148 75.9292 16.7271 76.4775 18.1946L81.5358 31.937C81.7201 32.4503 81.8298 32.9263 81.8298 33.4045C81.8298 36.2999 78.4583 38.9366 75.6352 38.9366C74.7556 38.9366 73.9484 39.4498 73.9484 40.6607C73.9484 41.6872 74.6087 42.2356 75.5629 42.2356C78.4583 42.2356 80.8756 39.8534 83.2577 32.9263L88.3884 18.1946C88.9017 16.6898 89.6365 15.1148 91.1742 15.1148V14.6016H85.2736Z" fill="white"/>
<path d="M93.374 17.7538C93.374 16.0669 94.4006 14.8956 96.5261 14.8956C98.6517 14.8956 100.266 16.4706 101.29 19.1839H101.694L101.731 15.115C100.558 14.7859 98.9456 14.2354 96.5634 14.2354C93.192 14.2354 90.8822 15.8849 90.8822 18.6707C90.8822 24.2049 100.376 24.9749 100.376 29.079C100.376 31.6454 98.5047 32.6698 96.7104 32.6698C94.0716 32.6698 92.093 30.7636 91.0665 27.9054H90.6628L90.6255 32.4504C92.2027 32.854 94.0716 33.4046 96.6358 33.4046C99.2 33.4046 102.721 31.8647 102.721 27.7957C102.721 22.1891 93.374 21.7131 93.374 17.7538Z" fill="white"/>
<path d="M110.418 29.408V14.2354H109.905C108.365 15.0426 106.459 15.5537 104.664 15.7006V16.2139C106.643 16.2139 107.303 17.7538 107.303 19.2563V29.408C107.303 30.9105 106.643 32.4504 104.664 32.4504V32.9637H113.129V32.4504C111.151 32.4504 110.418 30.9105 110.418 29.408Z" fill="white"/>
<path d="M129.951 29.8123C129.732 30.8015 129.109 31.3148 128.486 31.3148C127.716 31.3148 127.35 30.6546 127.35 29.5556V20.209C127.35 17.0591 126.251 14.3457 121.559 14.3457C117.27 14.3457 115.145 16.3243 115.145 18.0111C115.145 18.7437 115.621 19.2197 116.391 19.2197C118.115 19.2197 118.516 14.8963 121.449 14.8963C123.612 14.8963 124.235 17.0591 124.235 19.2197V23.6177C120.607 23.9117 114.412 24.4973 114.412 29.2266C114.412 31.8654 116.5 33.2583 118.883 33.2583C120.898 33.2583 123.099 32.0475 124.382 29.4459H124.491C124.529 31.9751 125.737 33.221 127.24 33.221C128.743 33.221 130.098 32.1571 130.429 29.8123H129.951ZM124.235 28.5663C123.208 30.3256 121.778 31.2052 120.056 31.2052C118.701 31.2052 117.602 30.4725 117.602 28.7857C117.602 26.0745 120.24 24.6092 124.235 24.2056V28.5663Z" fill="white"/>
<path d="M147.324 29.3731V20.7964C147.324 17.6443 146.482 14.1982 142.084 14.1982C139.811 14.1982 138.199 15.5538 136.549 17.7539V14.3452H135.926C134.351 15.2994 132.592 15.6284 130.905 15.8105V16.3238C132.921 16.3238 133.582 17.7912 133.582 19.2938V29.3731C133.582 30.8756 132.921 32.4133 130.905 32.4133V32.9266H139.263V32.4133C137.357 32.4133 136.696 30.8756 136.696 29.3731V18.8902C137.319 17.607 139.225 15.8851 141.423 15.8851C143.621 15.8851 144.209 17.7539 144.209 19.9168V29.3731C144.209 30.8756 143.586 32.4133 141.68 32.4133V32.9266H150V32.4133C147.984 32.4133 147.324 30.8756 147.324 29.3731Z" fill="white"/>
<path d="M124.542 42.2909V38.1846H126.156C126.417 38.1846 126.634 38.2372 126.812 38.3447C126.99 38.4522 127.121 38.5882 127.211 38.7571C127.301 38.926 127.345 39.1037 127.345 39.2879C127.345 39.5138 127.29 39.7091 127.178 39.8692C127.066 40.0315 126.917 40.1412 126.729 40.2004L126.722 40.06C126.985 40.1236 127.185 40.2509 127.328 40.4373C127.468 40.6238 127.538 40.8431 127.538 41.091C127.538 41.3389 127.49 41.5429 127.393 41.7205C127.297 41.8982 127.159 42.0386 126.974 42.1373C126.79 42.236 126.569 42.2865 126.308 42.2865H124.54L124.542 42.2909ZM125.147 39.8604H126.147C126.257 39.8604 126.358 39.8385 126.446 39.7924C126.533 39.7486 126.604 39.6827 126.656 39.5994C126.709 39.516 126.735 39.4129 126.735 39.2923C126.735 39.1322 126.683 39.0006 126.575 38.8997C126.468 38.7988 126.325 38.7461 126.147 38.7461H125.147V39.8604ZM125.147 41.7227H126.22C126.356 41.7227 126.476 41.6964 126.584 41.646C126.691 41.5955 126.777 41.5209 126.838 41.4244C126.9 41.3279 126.93 41.2138 126.93 41.08C126.93 40.9572 126.904 40.8453 126.849 40.7444C126.794 40.6435 126.718 40.5645 126.615 40.5075C126.514 40.4505 126.393 40.4198 126.257 40.4198H125.147V41.7205V41.7227Z" fill="white"/>
<path d="M128.962 42.2909V38.1846H131.585V38.7461H129.559V39.8977H131.243V40.4593H129.559V41.7293H131.585V42.2909H128.962Z" fill="white"/>
<path d="M132.84 42.2909L134.173 38.1846H135.031L136.365 42.2909H135.746L134.518 38.5443H134.671L133.456 42.2909H132.838H132.84ZM133.533 41.3652V40.8058H135.678V41.3652H133.533Z" fill="white"/>
<path d="M139.258 42.3757C138.938 42.3757 138.653 42.3099 138.407 42.1782C138.161 42.0466 137.968 41.8602 137.83 41.6211C137.692 41.382 137.622 41.1012 137.622 40.7788V38.186H138.227V40.7459C138.227 40.9214 138.256 41.0749 138.315 41.2087C138.374 41.3425 138.453 41.4522 138.552 41.5421C138.65 41.6321 138.762 41.6979 138.883 41.7439C139.006 41.79 139.131 41.8119 139.258 41.8119C139.385 41.8119 139.513 41.7878 139.635 41.7417C139.758 41.6957 139.868 41.6277 139.967 41.5377C140.065 41.4478 140.144 41.3381 140.201 41.2043C140.258 41.0705 140.289 40.9192 140.289 40.7459V38.1816H140.894V40.7766C140.894 41.0968 140.824 41.3776 140.686 41.6167C140.548 41.8558 140.355 42.0422 140.109 42.1739C139.863 42.3055 139.578 42.3713 139.258 42.3713V42.3757Z" fill="white"/>
<path d="M143.573 42.2909V38.7461H142.206V38.1846H145.534V38.7461H144.167V42.2909H143.57H143.573Z" fill="white"/>
<path d="M148.006 42.2909V40.5931L146.617 38.1846H147.313L148.309 39.9087L149.304 38.1846H150L148.611 40.5931V42.2909H148.006Z" fill="white"/>
</g>
<defs>
<clipPath id="clip0_1031_56948">
<rect width="150" height="41.7538" fill="white" transform="translate(0 0.623047)"/>
</clipPath>
</defs>
</svg>
