<svg width="25" height="15" viewBox="0 0 25 15" fill="none" xmlns="http://www.w3.org/2000/svg">
<g clip-path="url(#clip0_1302_2766)">
<path d="M9.34251 2.13281H15.5882V12.7396H9.34251V2.13281Z" fill="#FF5F00"/>
<path d="M9.73904 7.43584C9.73904 5.28078 10.8097 3.36926 12.4553 2.13239C11.2459 1.23289 9.71926 0.689453 8.05375 0.689453C4.10793 0.689453 0.915741 3.70654 0.915741 7.43584C0.915741 11.1651 4.10793 14.1822 8.05366 14.1822C9.71917 14.1822 11.2459 13.6388 12.4553 12.7392C10.8097 11.5211 9.73904 9.59091 9.73904 7.43584Z" fill="#EB001B"/>
<path d="M24.0141 7.43584C24.0141 11.1651 20.8219 14.1822 16.8761 14.1822C15.2106 14.1822 13.684 13.6388 12.4745 12.7392C14.14 11.5024 15.1909 9.59091 15.1909 7.43584C15.1909 5.28078 14.1201 3.36926 12.4745 2.13239C13.6839 1.23289 15.2106 0.689453 16.8761 0.689453C20.8219 0.689453 24.0141 3.72532 24.0141 7.43584Z" fill="#F79E1B"/>
</g>
<defs>
<clipPath id="clip0_1302_2766">
<rect width="23.122" height="13.4878" fill="white" transform="translate(0.915741 0.689453)"/>
</clipPath>
</defs>
</svg>
