<svg width="24" height="24" viewBox="0 0 24 24" fill="none" xmlns="http://www.w3.org/2000/svg">
<path fill-rule="evenodd" clip-rule="evenodd" d="M21.0996 6.84356C21.1768 6.99181 21.2478 7.14392 21.3123 7.29957C21.5468 7.86562 21.6505 8.4777 21.7007 9.21317C21.75 9.93603 21.75 10.8309 21.75 11.9722V12V12.0278C21.75 13.1691 21.75 14.064 21.7007 14.7868C21.6505 15.5223 21.5468 16.1344 21.3123 16.7004C20.7287 18.1093 19.6093 19.2287 18.2004 19.8123C17.6344 20.0468 17.0223 20.1505 16.2868 20.2007C15.564 20.25 14.6691 20.25 13.5278 20.25H13.5H10.5H10.4722C9.33087 20.25 8.43603 20.25 7.71317 20.2007C6.9777 20.1505 6.36562 20.0468 5.79957 19.8123C4.39066 19.2287 3.27128 18.1093 2.68769 16.7004C2.45323 16.1344 2.3495 15.5223 2.29931 14.7868C2.24999 14.064 2.25 13.1691 2.25 12.0278V12V11.9722C2.25 10.8309 2.24999 9.93604 2.29931 9.21317C2.3495 8.4777 2.45323 7.86562 2.68769 7.29957C3.27128 5.89066 4.39066 4.77128 5.79957 4.18769C6.36562 3.95323 6.9777 3.8495 7.71317 3.79931C8.43604 3.74999 9.33087 3.75 10.4722 3.75H10.5H13.5H13.5278C14.1047 3.75 14.6186 3.75 15.0792 3.75636C15.0273 3.99602 15 4.24482 15 4.5C15 4.75976 15.0283 5.01292 15.082 5.25655C14.6295 5.25011 14.1093 5.25 13.5 5.25H10.5C9.32488 5.25 8.48111 5.25041 7.81528 5.29584C7.15618 5.34081 6.72641 5.42737 6.3736 5.57351C5.33223 6.00486 4.50486 6.83223 4.07351 7.8736C3.92737 8.22641 3.84081 8.65618 3.79584 9.31528C3.75041 9.98111 3.75 10.8249 3.75 12C3.75 13.1751 3.75041 14.0189 3.79584 14.6847C3.84081 15.3438 3.92737 15.7736 4.07351 16.1264C4.50486 17.1678 5.33223 17.9951 6.3736 18.4265C6.72641 18.5726 7.15618 18.6592 7.81528 18.7042C8.48111 18.7496 9.32488 18.75 10.5 18.75H13.5C14.6751 18.75 15.5189 18.7496 16.1847 18.7042C16.8438 18.6592 17.2736 18.5726 17.6264 18.4265C18.6678 17.9951 19.4951 17.1678 19.9265 16.1264C20.0726 15.7736 20.1592 15.3438 20.2042 14.6847C20.2496 14.0189 20.25 13.1751 20.25 12C20.25 10.8249 20.2496 9.98111 20.2042 9.31528C20.1592 8.65618 20.0726 8.22641 19.9265 7.8736C19.9058 7.82364 19.8842 7.77418 19.8617 7.72523C20.3371 7.52425 20.7589 7.2212 21.0996 6.84356Z" fill="#FAFBFB"/>
<path d="M3 8L6.47486 10.7025C8.82448 12.5299 9.99929 13.4436 11.3413 13.6221C11.7788 13.6802 12.222 13.6802 12.6595 13.622C14.0015 13.4436 15.1762 12.5298 17.5258 10.7023L21 8" stroke="#FAFBFB" stroke-width="1.5" stroke-linejoin="round"/>
<path d="M20.5 4.5C20.5 5.60457 19.6046 6.5 18.5 6.5C17.3954 6.5 16.5 5.60457 16.5 4.5C16.5 3.39543 17.3954 2.5 18.5 2.5C19.6046 2.5 20.5 3.39543 20.5 4.5Z" fill="#FAFBFB"/>
</svg>
