<svg width="24" height="24" viewBox="0 0 24 24" fill="none" xmlns="http://www.w3.org/2000/svg">
<path d="M16 17H8M18.364 7.36396V7.36396C15.7125 4.7125 14.3868 3.38677 12.7822 3.13263C12.264 3.05055 11.736 3.05055 11.2178 3.13263C9.61323 3.38677 8.2875 4.7125 5.63604 7.36396V7.36396C4.48167 8.51833 3.90449 9.09551 3.54497 9.80112C3.42605 10.0345 3.32566 10.2769 3.24472 10.526C3 11.2791 3 12.0954 3 13.7279V15.6C3 17.8498 3 18.9748 3.57295 19.7634C3.75799 20.018 3.98196 20.242 4.23664 20.4271C5.02524 21 6.15016 21 8.4 21H15.6C17.8498 21 18.9748 21 19.7634 20.4271C20.018 20.242 20.242 20.018 20.4271 19.7634C21 18.9748 21 17.8498 21 15.6V13.7279C21 12.0954 21 11.2791 20.7553 10.526C20.6743 10.2769 20.5739 10.0345 20.455 9.80112C20.0955 9.09551 19.5183 8.51833 18.364 7.36396Z" stroke="#FAFBFB" stroke-width="1.5" stroke-linecap="round" stroke-linejoin="round"/>
</svg>
