<svg width="24" height="24" viewBox="0 0 24 24" fill="none" xmlns="http://www.w3.org/2000/svg">
<path d="M14.4473 12C14.4473 13.3486 13.3538 14.4419 12.005 14.4419C10.6561 14.4419 9.56265 13.3486 9.56265 12C9.56265 10.6514 10.6561 9.55814 12.005 9.55814C13.3538 9.55814 14.4473 10.6514 14.4473 12Z" stroke="#FAFBFB" stroke-width="1.5" stroke-linejoin="round"/>
<path d="M9.16687 4.69252C9.71388 4.07721 9.98738 3.76955 10.2625 3.57326C11.305 2.82934 12.7049 2.82934 13.7475 3.57326C14.0226 3.76955 14.2961 4.07721 14.8431 4.69252V4.69252C15.0169 4.88804 15.1038 4.9858 15.1965 5.07375C15.5397 5.39927 15.955 5.63901 16.4086 5.77342C16.5311 5.80973 16.6593 5.83611 16.9156 5.88887V5.88887C17.7213 6.05468 18.1242 6.13758 18.4313 6.27731C19.598 6.80814 20.2986 8.02162 20.1749 9.29747C20.1424 9.63332 20.0128 10.0234 19.7537 10.8036V10.8036C19.6714 11.0516 19.6302 11.1756 19.6004 11.2998C19.4899 11.7601 19.4899 12.2399 19.6004 12.7002C19.6302 12.8244 19.6714 12.9484 19.7537 13.1964V13.1964C20.0128 13.9766 20.1424 14.3667 20.1749 14.7025C20.2986 15.9784 19.598 17.1919 18.4313 17.7227C18.1242 17.8624 17.7213 17.9453 16.9156 18.1111V18.1111C16.6593 18.1639 16.5311 18.1903 16.4086 18.2266C15.955 18.361 15.5397 18.6007 15.1965 18.9262C15.1038 19.0142 15.0169 19.112 14.8431 19.3075V19.3075C14.2961 19.9228 14.0226 20.2305 13.7475 20.4267C12.7049 21.1707 11.305 21.1707 10.2625 20.4267C9.98738 20.2305 9.71388 19.9228 9.16687 19.3075V19.3075C8.99305 19.112 8.90615 19.0142 8.81342 18.9262C8.47021 18.6007 8.0549 18.361 7.60138 18.2266C7.47884 18.1903 7.35066 18.1639 7.0943 18.1111V18.1111C6.28862 17.9453 5.88578 17.8624 5.57866 17.7227C4.4119 17.1919 3.71131 15.9784 3.835 14.7025C3.86756 14.3667 3.99711 13.9766 4.25622 13.1964V13.1964C4.3386 12.9484 4.37979 12.8244 4.40959 12.7002C4.52007 12.2399 4.52007 11.7601 4.40959 11.2998C4.37979 11.1756 4.3386 11.0516 4.25622 10.8036V10.8036C3.99711 10.0234 3.86756 9.63332 3.835 9.29747C3.71131 8.02163 4.4119 6.80814 5.57866 6.27731C5.88579 6.13758 6.28862 6.05468 7.0943 5.88887V5.88887C7.35066 5.83611 7.47884 5.80973 7.60138 5.77342C8.0549 5.63901 8.47021 5.39927 8.81342 5.07375C8.90615 4.9858 8.99305 4.88804 9.16687 4.69252V4.69252Z" stroke="#FAFBFB" stroke-width="1.5" stroke-linejoin="round"/>
</svg>
