<svg width="55" height="55" viewBox="0 0 55 55" fill="none" xmlns="http://www.w3.org/2000/svg">
<rect x="0.507589" y="0.536519" width="53.4312" height="53.4312" rx="26.7156" fill="#FAFBFB"/>
<rect x="0.507589" y="0.536519" width="53.4312" height="53.4312" rx="26.7156" stroke="#E3E5E5" stroke-width="0.971476"/>
<path d="M19.4659 29.6573C19.4692 29.7231 19.459 29.7889 19.4361 29.8506C19.4132 29.9124 19.3779 29.9688 19.3325 30.0166C19.287 30.0643 19.2324 30.1022 19.1718 30.1281C19.1112 30.1541 19.046 30.1674 18.9801 30.1673H13.6224C13.4032 30.1676 13.1902 30.0938 13.0183 29.9577C12.8463 29.8217 12.7254 29.6315 12.6752 29.418C12.644 29.2719 12.6454 29.1207 12.6795 28.9753C12.7135 28.8298 12.7792 28.6936 12.872 28.5765C13.7291 27.4399 14.8663 26.5449 16.1726 25.979C15.599 25.4561 15.1592 24.8034 14.8898 24.0756C14.6204 23.3477 14.5294 22.5659 14.6243 21.7957C14.7192 21.0254 14.9973 20.2891 15.4352 19.6484C15.8732 19.0077 16.4584 18.4813 17.1416 18.1132C17.8249 17.7451 18.5864 17.5462 19.3624 17.5329C20.1384 17.5197 20.9062 17.6926 21.6017 18.0372C22.2971 18.3817 22.8998 18.8879 23.3594 19.5133C23.819 20.1387 24.122 20.8651 24.2431 21.6317C24.2587 21.7348 24.2403 21.8401 24.1905 21.9318C24.1407 22.0234 24.0624 22.0962 23.9674 22.1393C22.62 22.7622 21.4788 23.7575 20.6786 25.0079C19.8784 26.2582 19.4526 27.7113 19.4513 29.1958C19.4513 29.3513 19.4513 29.5043 19.4659 29.6573ZM41.5669 28.5753C40.7118 27.44 39.5772 26.5455 38.2736 25.979C38.8471 25.4561 39.287 24.8034 39.5564 24.0756C39.8258 23.3477 39.9168 22.5659 39.8219 21.7957C39.727 21.0254 39.4489 20.2891 39.0109 19.6484C38.573 19.0077 37.9878 18.4813 37.3046 18.1132C36.6213 17.7451 35.8598 17.5462 35.0838 17.5329C34.3078 17.5197 33.5399 17.6926 32.8445 18.0372C32.1491 18.3817 31.5464 18.8879 31.0868 19.5133C30.6272 20.1387 30.3242 20.8651 30.2031 21.6317C30.1875 21.7348 30.2059 21.8401 30.2557 21.9318C30.3054 22.0234 30.3838 22.0962 30.4788 22.1393C31.8262 22.7622 32.9674 23.7575 33.7676 25.0079C34.5678 26.2582 34.9936 27.7113 34.9949 29.1958C34.9949 29.3513 34.9949 29.5043 34.9803 29.6573C34.977 29.7231 34.9872 29.7889 35.0101 29.8506C35.033 29.9124 35.0683 29.9688 35.1137 30.0166C35.1592 30.0643 35.2138 30.1022 35.2744 30.1281C35.335 30.1541 35.4002 30.1674 35.4661 30.1673H40.8238C41.043 30.1676 41.256 30.0938 41.4279 29.9577C41.5999 29.8217 41.7208 29.6315 41.771 29.418C41.8024 29.2717 41.8009 29.1202 41.7667 28.9744C41.7325 28.8287 41.6663 28.6924 41.573 28.5753H41.5669ZM30.7593 33.8188C31.7266 33.078 32.4374 32.0528 32.7919 30.8871C33.1464 29.7215 33.1267 28.474 32.7356 27.3201C32.3445 26.1662 31.6017 25.1639 30.6115 24.454C29.6213 23.7441 28.4336 23.3623 27.2152 23.3623C25.9968 23.3623 24.8091 23.7441 23.8189 24.454C22.8287 25.1639 22.0859 26.1662 21.6948 27.3201C21.3037 28.474 21.284 29.7215 21.6385 30.8871C21.993 32.0528 22.7038 33.078 23.6711 33.8188C21.9547 34.5625 20.5214 35.8362 19.5812 37.4534C19.4959 37.6011 19.4511 37.7686 19.4511 37.9392C19.4511 38.1097 19.496 38.2773 19.5813 38.4249C19.6666 38.5726 19.7892 38.6953 19.9369 38.7805C20.0847 38.8658 20.2522 38.9106 20.4228 38.9106H34.0234C34.194 38.9106 34.3615 38.8658 34.5092 38.7805C34.657 38.6953 34.7796 38.5726 34.8649 38.4249C34.9502 38.2773 34.9951 38.1097 34.9951 37.9392C34.9951 37.7686 34.9502 37.6011 34.865 37.4534C33.9227 35.8351 32.4868 34.5614 30.7678 33.8188H30.7593Z" fill="#282B2A"/>
</svg>
