<svg width="55" height="55" viewBox="0 0 55 55" fill="none" xmlns="http://www.w3.org/2000/svg">
<rect x="0.692281" y="0.536519" width="53.4312" height="53.4312" rx="26.7156" fill="#FAFBFB"/>
<rect x="0.692281" y="0.536519" width="53.4312" height="53.4312" rx="26.7156" stroke="#E3E5E5" stroke-width="0.971476"/>
<path d="M27.4078 14.623C24.9099 14.623 22.4682 15.3637 20.3914 16.7515C18.3145 18.1392 16.6958 20.1116 15.7399 22.4193C14.784 24.7269 14.5339 27.2663 15.0212 29.7161C15.5085 32.1659 16.7114 34.4162 18.4776 36.1824C20.2438 37.9487 22.4941 39.1515 24.9439 39.6388C27.3938 40.1261 29.9331 39.876 32.2407 38.9201C34.5484 37.9642 36.5208 36.3455 37.9086 34.2686C39.2963 32.1918 40.037 29.7501 40.037 27.2522C40.0334 23.9039 38.7017 20.6936 36.334 18.326C33.9664 15.9583 30.7562 14.6266 27.4078 14.623ZM28.865 33.0811H28.3792V34.0526C28.3792 34.3102 28.2769 34.5573 28.0947 34.7395C27.9125 34.9217 27.6654 35.0241 27.4078 35.0241C27.1501 35.0241 26.903 34.9217 26.7208 34.7395C26.5386 34.5573 26.4363 34.3102 26.4363 34.0526V33.0811H24.4933C24.2357 33.0811 23.9886 32.9788 23.8064 32.7966C23.6242 32.6144 23.5219 32.3673 23.5219 32.1096C23.5219 31.852 23.6242 31.6049 23.8064 31.4227C23.9886 31.2405 24.2357 31.1381 24.4933 31.1381H28.865C29.2515 31.1381 29.6221 30.9846 29.8954 30.7113C30.1687 30.4381 30.3222 30.0674 30.3222 29.6809C30.3222 29.2945 30.1687 28.9238 29.8954 28.6505C29.6221 28.3772 29.2515 28.2237 28.865 28.2237H25.9506C25.0488 28.2237 24.1839 27.8655 23.5463 27.2278C22.9086 26.5902 22.5504 25.7253 22.5504 24.8236C22.5504 23.9218 22.9086 23.0569 23.5463 22.4193C24.1839 21.7816 25.0488 21.4234 25.9506 21.4234H26.4363V20.4519C26.4363 20.1943 26.5386 19.9472 26.7208 19.765C26.903 19.5828 27.1501 19.4804 27.4078 19.4804C27.6654 19.4804 27.9125 19.5828 28.0947 19.765C28.2769 19.9472 28.3792 20.1943 28.3792 20.4519V21.4234H30.3222C30.5798 21.4234 30.8269 21.5257 31.0091 21.7079C31.1913 21.8901 31.2937 22.1372 31.2937 22.3949C31.2937 22.6525 31.1913 22.8996 31.0091 23.0818C30.8269 23.264 30.5798 23.3663 30.3222 23.3663H25.9506C25.5641 23.3663 25.1934 23.5199 24.9201 23.7931C24.6469 24.0664 24.4933 24.4371 24.4933 24.8236C24.4933 25.21 24.6469 25.5807 24.9201 25.854C25.1934 26.1272 25.5641 26.2808 25.9506 26.2808H28.865C29.7668 26.2808 30.6316 26.639 31.2693 27.2767C31.9069 27.9143 32.2651 28.7792 32.2651 29.6809C32.2651 30.5827 31.9069 31.4476 31.2693 32.0852C30.6316 32.7229 29.7668 33.0811 28.865 33.0811Z" fill="#282B2A"/>
</svg>
