<svg width="56" height="55" viewBox="0 0 56 55" fill="none" xmlns="http://www.w3.org/2000/svg">
<rect x="1.09987" y="0.536519" width="53.4312" height="53.4312" rx="26.7156" fill="#FAFBFB"/>
<rect x="1.09987" y="0.536519" width="53.4312" height="53.4312" rx="26.7156" stroke="#E3E5E5" stroke-width="0.971476"/>
<path d="M40.2187 18.8573C40.1275 18.7481 40.0135 18.6604 39.8846 18.6001C39.7558 18.5399 39.6153 18.5087 39.4731 18.5087H19.8833L19.145 14.4492C19.1043 14.2253 18.9864 14.0229 18.8117 13.8771C18.6371 13.7313 18.4168 13.6514 18.1893 13.6514H15.1862C14.9285 13.6514 14.6814 13.7537 14.4993 13.9359C14.3171 14.1181 14.2147 14.3652 14.2147 14.6228C14.2147 14.8805 14.3171 15.1276 14.4993 15.3098C14.6814 15.492 14.9285 15.5943 15.1862 15.5943H17.372L20.4759 32.6304C20.5673 33.1356 20.7906 33.6077 21.1231 33.9989C20.6642 34.4276 20.3329 34.9751 20.1661 35.5805C19.9992 36.186 20.0033 36.8258 20.1779 37.4291C20.3525 38.0324 20.6908 38.5755 21.1552 38.9982C21.6197 39.421 22.1921 39.7069 22.8091 39.8241C23.4261 39.9414 24.0635 39.8855 24.6506 39.6627C25.2378 39.4398 25.7517 39.0587 26.1355 38.5616C26.5193 38.0644 26.7579 37.4707 26.8248 36.8463C26.8918 36.2218 26.7845 35.591 26.5148 35.0238H32.0304C31.813 35.4788 31.7006 35.9768 31.7013 36.4811C31.7013 37.1536 31.9007 37.8109 32.2743 38.3701C32.6479 38.9293 33.179 39.3651 33.8003 39.6224C34.4216 39.8798 35.1052 39.9471 35.7648 39.8159C36.4244 39.6847 37.0302 39.3609 37.5057 38.8853C37.9813 38.4098 38.3051 37.804 38.4363 37.1444C38.5675 36.4848 38.5002 35.8012 38.2428 35.1799C37.9855 34.5586 37.5497 34.0275 36.9905 33.6539C36.4313 33.2803 35.774 33.0809 35.1015 33.0809H23.343C23.1154 33.0809 22.8952 33.001 22.7205 32.8552C22.5459 32.7094 22.4279 32.5069 22.3873 32.2831L22.0023 30.1665H36.0887C36.7713 30.1664 37.4321 29.9267 37.956 29.4893C38.48 29.0519 38.8338 28.4445 38.9558 27.773L40.4324 19.6539C40.4574 19.5135 40.4513 19.3694 40.4143 19.2318C40.3774 19.0941 40.3106 18.9662 40.2187 18.8573ZM24.901 36.4811C24.901 36.7693 24.8155 37.051 24.6554 37.2906C24.4953 37.5303 24.2677 37.7171 24.0014 37.8274C23.7351 37.9376 23.4421 37.9665 23.1595 37.9103C22.8768 37.8541 22.6171 37.7153 22.4133 37.5115C22.2095 37.3077 22.0708 37.048 22.0145 36.7654C21.9583 36.4827 21.9872 36.1897 22.0975 35.9234C22.2078 35.6571 22.3945 35.4296 22.6342 35.2694C22.8738 35.1093 23.1555 35.0238 23.4437 35.0238C23.8302 35.0238 24.2009 35.1774 24.4742 35.4507C24.7474 35.7239 24.901 36.0946 24.901 36.4811ZM36.5587 36.4811C36.5587 36.7693 36.4732 37.051 36.3131 37.2906C36.153 37.5303 35.9254 37.7171 35.6591 37.8274C35.3928 37.9376 35.0998 37.9665 34.8172 37.9103C34.5345 37.8541 34.2749 37.7153 34.0711 37.5115C33.8673 37.3077 33.7285 37.048 33.6723 36.7654C33.616 36.4827 33.6449 36.1897 33.7552 35.9234C33.8655 35.6571 34.0522 35.4296 34.2919 35.2694C34.5315 35.1093 34.8133 35.0238 35.1015 35.0238C35.4879 35.0238 35.8586 35.1774 36.1319 35.4507C36.4052 35.7239 36.5587 36.0946 36.5587 36.4811Z" fill="#282B2A"/>
</svg>
