<svg width="55" height="55" viewBox="0 0 55 55" fill="none" xmlns="http://www.w3.org/2000/svg">
<rect x="0.915182" y="0.536519" width="53.4312" height="53.4312" rx="26.7156" fill="#FAFBFB"/>
<rect x="0.915182" y="0.536519" width="53.4312" height="53.4312" rx="26.7156" stroke="#E3E5E5" stroke-width="0.971476"/>
<path d="M26.6593 31.3738V39.3083C26.6598 39.3771 26.6456 39.4452 26.6178 39.508C26.59 39.5709 26.5491 39.6272 26.4979 39.6731C26.4467 39.719 26.3863 39.7536 26.3208 39.7744C26.2553 39.7953 26.186 39.8019 26.1177 39.794C23.8729 39.5183 21.743 38.6465 19.9491 37.2691C18.1553 35.8917 16.7631 34.059 15.9172 31.9615C15.8919 31.8977 15.8804 31.8293 15.8835 31.7608C15.8866 31.6923 15.9041 31.6252 15.9349 31.5639C15.9658 31.5027 16.0093 31.4486 16.0625 31.4054C16.1158 31.3622 16.1776 31.3307 16.2439 31.313L23.9052 29.2559C24.0033 29.2302 24.1069 29.2358 24.2017 29.272C24.2964 29.3081 24.3774 29.373 24.4334 29.4575C24.8973 30.1286 25.5592 30.638 26.3266 30.9147C26.4231 30.9468 26.5072 31.0083 26.5669 31.0907C26.6266 31.173 26.6589 31.272 26.6593 31.3738ZM27.6381 14.6231C27.5099 14.6221 27.3828 14.6465 27.2641 14.6949C27.1454 14.7433 27.0374 14.8147 26.9464 14.905C26.8554 14.9953 26.7832 15.1027 26.734 15.2211C26.6847 15.3394 26.6593 15.4664 26.6593 15.5946V22.3949C26.6574 22.6504 26.7569 22.8962 26.9361 23.0784C27.1153 23.2605 27.3595 23.3641 27.615 23.3664C28.5325 23.3624 29.4218 23.6832 30.1255 24.272C30.8291 24.8608 31.3018 25.6795 31.4597 26.5834C31.6176 27.4872 31.4507 28.4177 30.9884 29.2102C30.5261 30.0027 29.7983 30.6061 28.9338 30.9135C28.8373 30.9458 28.7534 31.0076 28.6939 31.0902C28.6344 31.1728 28.6024 31.272 28.6023 31.3738V39.3083C28.6018 39.377 28.616 39.4449 28.6437 39.5077C28.6715 39.5705 28.7122 39.6267 28.7633 39.6726C28.8143 39.7185 28.8746 39.7531 28.94 39.774C29.0053 39.7949 29.0744 39.8018 29.1427 39.794C32.343 39.4155 35.2777 37.8278 37.3456 35.3561C39.4135 32.8844 40.4583 29.7156 40.266 26.4987C40.0737 23.2817 38.6589 20.26 36.3113 18.0522C33.9636 15.8444 30.8608 14.6177 27.6381 14.6231ZM23.7522 26.9475C23.7974 26.3736 23.9695 25.817 24.2561 25.3178V25.3093C24.3524 25.1431 24.3972 24.952 24.3849 24.7603C24.3726 24.5685 24.3037 24.3848 24.1869 24.2322C24.1052 24.1272 24.0037 24.0394 23.8882 23.9735L18.0193 20.5807C17.9087 20.5169 17.7866 20.4755 17.66 20.459C17.5335 20.4424 17.4049 20.451 17.2816 20.4841C17.1584 20.5173 17.0428 20.5744 16.9417 20.6522C16.8405 20.73 16.7556 20.827 16.692 20.9377C15.2786 23.3855 14.7262 26.2363 15.123 29.0349C15.1324 29.1032 15.1562 29.1688 15.1928 29.2272C15.2295 29.2856 15.2781 29.3355 15.3356 29.3736C15.393 29.4118 15.4579 29.4372 15.526 29.4483C15.594 29.4595 15.6636 29.456 15.7302 29.4381L23.4073 27.3737C23.5024 27.3474 23.5871 27.2923 23.6497 27.216C23.7123 27.1397 23.7498 27.0459 23.757 26.9475H23.7522Z" fill="#282B2A"/>
</svg>
