<svg width="52" height="52" viewBox="0 0 52 52" fill="none" xmlns="http://www.w3.org/2000/svg">
<rect width="52" height="52" rx="26" fill="#D6D8D7"/>
<path d="M29 24.5H31M32 21V21C32 19.3431 30.6569 18 29 18H24.2C21.2002 18 19.7003 18 18.6489 18.7639C18.3093 19.0107 18.0107 19.3093 17.7639 19.6489C17 20.7003 17 22.2002 17 25.2V29M23.5 34H28.5C30.8346 34 32.0019 34 32.8856 33.5277C33.5833 33.1548 34.1548 32.5833 34.5277 31.8856C35 31.0019 35 29.8346 35 27.5V27.5C35 25.1654 35 23.9981 34.5277 23.1144C34.1548 22.4167 33.5833 21.8452 32.8856 21.4723C32.0019 21 30.8346 21 28.5 21H23.5C21.1654 21 19.9981 21 19.1144 21.4723C18.4167 21.8452 17.8452 22.4167 17.4723 23.1144C17 23.9981 17 25.1654 17 27.5V27.5C17 29.8346 17 31.0019 17.4723 31.8856C17.8452 32.5833 18.4167 33.1548 19.1144 33.5277C19.9981 34 21.1654 34 23.5 34Z" stroke="#282B2A" stroke-width="1.5" stroke-linecap="round" stroke-linejoin="round"/>
</svg>
